<?xml version="1.0" encoding="utf-8"?>
<!-- Generator: Adobe Illustrator 16.0.4, SVG Export Plug-In . SVG Version: 6.00 Build 0)  -->
<svg version="1.2" baseProfile="tiny" id="Layer_1" xmlns="http://www.w3.org/2000/svg" xmlns:xlink="http://www.w3.org/1999/xlink"
	 x="0px" y="0px" width="686.569px" height="283.46px" viewBox="0 0 686.569 283.46" xml:space="preserve">
<g>
	<polygon fill="#005C27" points="304.632,164.968 304.632,98.435 313.438,98.435 332.661,146.025 337.181,157.214 338.521,153.385 
		360.73,98.435 369.633,98.435 369.633,164.968 363.602,164.968 363.602,104.657 356.153,123.804 340.015,163.341 334.286,163.341 
		314.312,113.46 310.663,104.342 310.663,164.968 	"/>
	<path fill="#005C27" d="M383.514,141.979c0-6.25,1.915-11.703,5.744-16.36c3.829-4.656,8.552-6.985,14.168-6.985
		c1.978,0,3.877,0.304,5.696,0.91c1.818,0.607,3.686,1.644,5.6,3.111c1.915,1.469,3.462,3.781,4.644,6.94
		c1.18,3.159,1.771,6.973,1.771,11.44h-31.687v0.755c0,5.724,1.563,10.3,4.69,13.728c3.127,3.429,6.733,5.142,10.818,5.142
		c5.424,0,10.593-2.169,15.508-6.51l0.479,5.188c-4.915,4.264-10.243,6.395-15.986,6.395c-5.873,0-10.914-2.282-15.126-6.848
		S383.514,148.685,383.514,141.979z M389.736,137.206h26.039c-0.447-4.749-1.899-8.186-4.356-10.31s-5.186-3.188-8.185-3.188
		c-3.255,0-6.144,1.282-8.664,3.844C392.049,130.114,390.438,133.332,389.736,137.206z"/>
	<path fill="#005C27" d="M431.857,164.968v-45.185h5.744v7.129l0.096,4.41c0.51-1.252,1.212-2.504,2.106-3.757
		c0.893-1.252,2.041-2.552,3.446-3.898c1.402-1.346,3.19-2.441,5.36-3.287c2.169-0.845,4.562-1.3,7.18-1.362v5.074
		c-2.043,0.064-4.053,0.417-6.03,1.061c-1.979,0.643-3.894,1.641-5.744,2.99c-1.852,1.35-3.336,3.229-4.451,5.639
		c-1.118,2.41-1.676,5.222-1.676,8.435v22.752H431.857z"/>
	<path fill="#005C27" d="M464.979,104.562V98.53h6.031v6.031H464.979z M464.979,164.968v-45.185h6.031v45.185H464.979z"/>
	<path fill="#005C27" d="M481.662,161.147l0.958-5.509c5.462,3.348,10.927,5.021,16.391,5.021c3.876,0,6.64-0.793,8.291-2.379
		c1.651-1.585,2.479-3.393,2.479-5.422c0-1.902-0.718-3.455-2.15-4.661c-1.434-1.205-3.018-2.093-4.75-2.664
		c-0.753-0.132-2.617-0.484-5.588-1.056s-5.494-1.328-7.567-2.271c-2.074-0.94-3.846-2.384-5.312-4.33
		c-1.469-2.007-2.202-4.142-2.202-6.4c0-1.492,0.242-2.902,0.729-4.232c0.488-1.328,1.284-2.691,2.388-4.085s2.81-2.513,5.115-3.356
		s5.082-1.266,8.33-1.266h0.292c4.937,0,9.874,1.15,14.81,3.451l-1.024,5.317c-4.964-2.462-9.863-3.695-14.697-3.695
		c-3.749,0-6.354,0.735-7.815,2.204c-1.462,1.469-2.191,3.078-2.191,4.828c0,1.376,0.36,2.673,1.084,3.891
		c0.725,1.219,1.786,2.109,3.189,2.671c0.36,0.085,2.017,0.475,4.966,1.166c2.95,0.692,4.966,1.165,6.051,1.419
		c3.338,0.958,6.22,2.504,8.644,4.64c2.424,2.136,3.637,4.767,3.637,7.892c0,3.449-1.254,6.546-3.759,9.292
		c-2.507,2.746-6.786,4.119-12.839,4.119S487.246,164.205,481.662,161.147z"/>
	<path fill="#005C27" d="M519.162,124.856v-5.074h9.189v-12.924h5.84v12.924h14.838v5.074h-14.838v26.9
		c0,5.936,1.819,8.903,5.457,8.903c0.766,0,1.498-0.047,2.201-0.143c0.702-0.094,1.355-0.251,1.963-0.473
		c0.605-0.221,1.148-0.426,1.627-0.616c0.479-0.188,0.958-0.441,1.437-0.757s0.845-0.552,1.101-0.71
		c0.255-0.159,0.558-0.396,0.909-0.711c0.351-0.315,0.559-0.475,0.623-0.475l1.244,4.664c-4.532,2.863-9.382,4.293-14.551,4.293
		c-5.299,0-7.946-4.403-7.946-13.214v-27.663H519.162z"/>
	<path fill="#005C27" d="M557.646,141.979c0-6.25,1.915-11.703,5.744-16.36c3.829-4.656,8.552-6.985,14.168-6.985
		c1.978,0,3.877,0.304,5.696,0.91c1.818,0.607,3.686,1.644,5.6,3.111c1.915,1.469,3.462,3.781,4.644,6.94
		c1.18,3.159,1.771,6.973,1.771,11.44h-31.687v0.755c0,5.724,1.563,10.3,4.69,13.728c3.127,3.429,6.733,5.142,10.818,5.142
		c5.424,0,10.593-2.169,15.508-6.51l0.479,5.188c-4.915,4.264-10.243,6.395-15.986,6.395c-5.873,0-10.914-2.282-15.126-6.848
		S557.646,148.685,557.646,141.979z M563.868,137.206h26.039c-0.447-4.749-1.899-8.186-4.356-10.31s-5.186-3.188-8.185-3.188
		c-3.255,0-6.144,1.282-8.664,3.844C566.181,130.114,564.569,133.332,563.868,137.206z"/>
	<path fill="#005C27" d="M605.988,164.968v-45.185h5.936v9.536c1.021-2.55,2.729-4.905,5.122-7.063
		c2.393-2.159,5.504-3.238,9.333-3.238c2.616,0,4.835,0.377,6.653,1.127c1.819,0.752,3.175,1.782,4.069,3.089
		c0.893,1.308,1.483,2.338,1.771,3.089c0.287,0.752,0.558,1.685,0.813,2.796c0.063,0.196,0.096,0.326,0.096,0.392
		c1.149-2.68,2.903-5.099,5.266-7.256c2.36-2.157,5.457-3.237,9.286-3.237c2.552,0,4.738,0.399,6.558,1.196
		c1.818,0.799,3.174,1.692,4.068,2.681c0.893,0.99,1.579,2.331,2.058,4.021c0.479,1.692,0.75,3.049,0.814,4.069
		c0.062,1.021,0.096,2.297,0.096,3.829v30.155H661.8v-29.564c0-1.14-0.033-2.06-0.096-2.757c-0.064-0.697-0.287-1.647-0.67-2.851
		s-0.926-2.17-1.628-2.9c-0.703-0.729-1.771-1.378-3.207-1.949c-1.436-0.57-3.176-0.855-5.217-0.855
		c-3.446,0-6.127,1.396-8.042,4.184c-1.914,2.788-2.872,6.465-2.872,11.027v25.667h-6.222v-29.564c0-1.14-0.017-2.06-0.048-2.757
		c-0.033-0.697-0.24-1.647-0.623-2.851s-0.926-2.17-1.627-2.9c-0.703-0.729-1.771-1.378-3.207-1.949
		c-1.436-0.57-3.176-0.855-5.218-0.855c-3.446,0-6.143,1.396-8.089,4.184c-1.947,2.788-2.92,6.465-2.92,11.027
		c0,0.127,0.015,0.254,0.048,0.38c0.031,0.127,0.048,0.254,0.048,0.38v24.907H605.988z"/>
	<path fill="#CCCCCC" d="M189.755,141.744c0-12.151-4.297-22.482-12.882-31.082c-8.583-8.567-18.928-12.883-31.049-12.883
		c-12.14,0-22.5,4.316-31.068,12.883c-8.583,8.599-12.883,18.93-12.883,31.082c0,12.125,4.299,22.486,12.883,31.052
		c8.568,8.569,18.928,12.882,31.068,12.882c12.121,0,22.466-4.312,31.049-12.882C185.458,164.229,189.755,153.868,189.755,141.744z
		 M277.629,123.029v38.1c0,1.368-0.456,2.674-1.369,3.951c-0.91,1.244-2.066,2.005-3.435,2.219l-31.752,4.799
		c-2.173,6.199-4.407,11.395-6.7,15.616c4.009,5.744,10.132,13.643,18.365,23.699c1.155,1.368,1.716,2.796,1.716,4.283
		c0,1.491-0.516,2.796-1.533,3.952c-3.099,4.253-8.766,10.421-16.999,18.563c-8.234,8.111-13.613,12.183-16.134,12.183
		c-1.366,0-2.855-0.547-4.466-1.55l-23.684-18.532c-5.029,2.612-10.238,4.77-15.617,6.502c-1.838,15.557-3.493,26.19-4.982,31.932
		c-0.804,3.19-2.855,4.801-6.183,4.801h-38.085c-1.609,0-3.007-0.485-4.222-1.46c-1.184-0.972-1.854-2.187-1.959-3.677
		l-4.817-31.596c-5.606-1.823-10.755-3.948-15.449-6.352l-24.2,18.382c-1.139,1.003-2.566,1.55-4.283,1.55
		c-1.611,0-3.039-0.639-4.3-1.914c-14.402-13.034-23.851-22.665-28.317-28.832c-0.791-1.156-1.201-2.461-1.201-3.952
		c0-1.364,0.456-2.671,1.384-3.948c1.716-2.399,4.632-6.199,8.75-11.425c4.116-5.195,7.201-9.207,9.266-12.092
		c-3.084-5.713-5.439-11.363-7.034-16.984l-31.416-4.619c-1.488-0.241-2.688-0.941-3.601-2.155c-0.91-1.186-1.366-2.553-1.366-4.041
		V122.33c0-1.367,0.456-2.705,1.366-3.95c0.912-1.245,2.005-2.004,3.251-2.217l31.933-4.801c1.611-5.286,3.828-10.544,6.699-15.799
		c-4.588-6.501-10.71-14.401-18.367-23.67c-1.155-1.395-1.716-2.764-1.716-4.132c0-1.152,0.517-2.459,1.536-3.948
		c2.977-4.132,8.613-10.271,16.907-18.473c8.294-8.175,13.703-12.245,16.226-12.245c1.487,0,2.977,0.547,4.464,1.701l23.683,18.382
		c5.029-2.642,10.24-4.831,15.617-6.531c1.84-15.557,3.495-26.221,4.984-31.935c0.805-3.189,2.855-4.799,6.181-4.799h38.085
		c1.611,0,3.009,0.486,4.224,1.458c1.185,0.972,1.854,2.188,1.959,3.676l4.816,31.6c5.605,1.822,10.755,3.949,15.451,6.349
		l24.366-18.351c1.034-1.064,2.4-1.549,4.116-1.549c1.49,0,2.917,0.547,4.3,1.701c14.75,13.613,24.199,23.365,28.317,29.197
		c0.789,0.912,1.199,2.159,1.199,3.768c0,1.368-0.456,2.675-1.366,3.951c-1.732,2.399-4.65,6.197-8.767,11.393
		c-4.116,5.225-7.2,9.236-9.266,12.123c2.978,5.712,5.317,11.333,7.034,16.802l31.417,4.802c1.49,0.242,2.692,0.942,3.603,2.156
		C277.173,120.203,277.629,121.54,277.629,123.029z"/>
	<path fill="#555555" d="M189.755,141.744h1.02c0.01-12.393-4.419-23.041-13.18-31.802l-0.001-0.001
		c-8.745-8.743-19.405-13.191-31.77-13.181c-12.383-0.01-23.058,4.438-31.789,13.181l-0.001,0.001
		c-8.759,8.761-13.191,19.409-13.181,31.802c-0.01,12.367,4.42,23.043,13.182,31.774l-0.001-0.001
		c8.731,8.747,19.406,13.19,31.789,13.181c12.364,0.01,23.024-4.435,31.77-13.18c8.763-8.73,13.192-19.407,13.182-31.774H189.755
		h-1.02c-0.01,11.882-4.176,21.928-12.583,30.331c-8.421,8.394-18.451,12.574-30.329,12.584
		c-11.897-0.01-21.941-4.191-30.347-12.583l-0.001-0.001c-8.405-8.402-12.573-18.448-12.583-30.331
		c0.01-11.91,4.177-21.924,12.585-30.361l-0.001,0.001c8.406-8.39,18.45-12.574,30.347-12.584
		c11.878,0.01,21.908,4.194,30.329,12.585l-0.001-0.001c8.409,8.438,12.574,18.451,12.584,30.361H189.755z M277.629,123.029h-1.02
		v38.1c-0.004,1.137-0.365,2.212-1.179,3.358l0.829,0.593l-0.823-0.602c-0.793,1.071-1.688,1.638-2.769,1.812h0.005l-32.359,4.891
		l-0.203,0.579c-2.159,6.161-4.375,11.309-6.633,15.467l-0.301,0.554l0.361,0.517c4.036,5.782,10.17,13.692,18.412,23.761
		l0.005,0.007l0.004,0.005c1.033,1.233,1.471,2.401,1.476,3.626c-0.008,1.253-0.405,2.272-1.279,3.278l-0.031,0.035l-0.028,0.038
		c-3.029,4.161-8.677,10.316-16.892,18.439l0.001-0.002c-4.098,4.037-7.479,7.06-10.108,9.046c-1.313,0.993-2.44,1.726-3.351,2.194
		c-0.907,0.473-1.604,0.657-1.96,0.649c-1.087,0.004-2.412-0.449-3.927-1.396l-0.539,0.865l0.628-0.803l-24.2-18.937l-0.582,0.302
		c-4.977,2.586-10.133,4.721-15.459,6.437l-0.623,0.201l-0.077,0.649c-1.834,15.534-3.493,26.161-4.957,31.796l0,0.002l-0.001,0.005
		c-0.366,1.44-0.97,2.406-1.783,3.041c-0.815,0.633-1.906,0.986-3.412,0.989h-38.085c-1.405-0.006-2.536-0.402-3.584-1.235
		l-0.638,0.795l0.647-0.788c-0.504-0.414-0.874-0.856-1.133-1.339c-0.258-0.482-0.412-1.009-0.456-1.622l-0.003-0.041l-4.918-32.258
		l-0.598-0.194c-5.559-1.808-10.658-3.913-15.299-6.289l-0.571-0.293l-24.74,18.792l-0.028,0.024
		c-0.962,0.84-2.108,1.289-3.609,1.296c-1.335-0.01-2.454-0.492-3.575-1.611l-0.02-0.02l-0.021-0.02
		c-14.377-13.008-23.808-22.637-28.176-28.674l-0.826,0.598l0.841-0.576c-0.678-0.998-1.019-2.071-1.022-3.376
		c0.004-1.133,0.364-2.205,1.189-3.349l0.002-0.004l0.002-0.003c1.696-2.371,4.608-6.167,8.722-11.387l-0.001,0.002
		c4.121-5.201,7.212-9.221,9.295-12.131l0.371-0.518l-0.303-0.561c-3.054-5.656-5.378-11.238-6.95-16.778l-0.18-0.635l-32.068-4.715
		l-0.148,1.009l0.163-1.007c-1.265-0.215-2.175-0.748-2.949-1.761l-0.003-0.004l-0.003-0.005c-0.776-1.017-1.151-2.14-1.155-3.42
		V122.33c0.002-1.138,0.37-2.25,1.169-3.349l0,0.001c0.809-1.095,1.665-1.652,2.601-1.815l-0.172-1.005l0.151,1.008l32.569-4.896
		l0.188-0.615c1.59-5.217,3.779-10.41,6.619-15.607l0.305-0.558l-0.366-0.519c-4.61-6.532-10.746-14.449-18.414-23.731l-0.001-0.001
		l0.001,0c-1.052-1.276-1.48-2.402-1.482-3.481c-0.006-0.839,0.399-1.977,1.358-3.373l-0.842-0.576l0.827,0.596
		c2.904-4.035,8.521-10.163,16.796-18.344l-0.001,0.001c4.127-4.068,7.53-7.106,10.175-9.1c1.321-0.997,2.453-1.731,3.367-2.2
		c0.911-0.474,1.611-0.659,1.968-0.651c1.23,0.003,2.483,0.44,3.84,1.487l24.201,18.784l0.581-0.305
		c4.978-2.615,10.133-4.78,15.451-6.462l0.627-0.199l0.078-0.654c1.835-15.534,3.495-26.192,4.958-31.797l0.001-0.004l0.001-0.004
		c0.366-1.44,0.97-2.405,1.783-3.041c0.815-0.632,1.905-0.985,3.41-0.988h38.085c1.406,0.006,2.538,0.403,3.587,1.234l0.637-0.796
		l-0.646,0.788c1.002,0.838,1.492,1.743,1.588,2.959l0.003,0.041l4.917,32.263l0.598,0.194c5.558,1.806,10.657,3.913,15.302,6.287
		l0.568,0.291l24.938-18.782l0.055-0.057c0.416-0.425,0.876-0.723,1.426-0.928c0.55-0.204,1.196-0.312,1.959-0.312
		c1.234,0.005,2.4,0.432,3.647,1.464l0.653-0.783l-0.691,0.749c7.365,6.798,13.403,12.628,18.104,17.477
		c4.701,4.847,8.068,8.721,10.071,11.559l0.029,0.041l0.032,0.038c0.594,0.69,0.946,1.658,0.951,3.101
		c-0.003,1.137-0.365,2.215-1.177,3.359l0.003-0.004c-1.714,2.375-4.628,6.167-8.739,11.356l-0.001,0.002
		c-4.121,5.23-7.21,9.248-9.294,12.161l-0.365,0.509l0.29,0.555c2.952,5.663,5.269,11.23,6.965,16.636l0.19,0.606l32.045,4.898
		l-0.009-0.001c1.269,0.216,2.179,0.75,2.95,1.761v0c0.792,1.062,1.16,2.149,1.165,3.429H277.629h1.02
		c0.005-1.698-0.539-3.285-1.573-4.653v0c-1.049-1.416-2.543-2.282-4.255-2.55l-0.004-0.001l-31.422-4.802l-0.154,1.008l0.973-0.305
		c-1.736-5.531-4.099-11.207-7.102-16.968l-0.904,0.471l0.829,0.593c2.047-2.861,5.125-6.866,9.237-12.085l-0.001,0.002
		c4.121-5.203,7.043-9.005,8.794-11.43l0.001-0.002l0.002-0.002c1.009-1.408,1.559-2.944,1.556-4.543
		c0.004-1.774-0.464-3.301-1.447-4.435l-0.771,0.667l0.833-0.588c-2.116-2.994-5.532-6.912-10.273-11.802
		c-4.74-4.889-10.802-10.741-18.186-17.556l-0.019-0.018l-0.02-0.017c-1.518-1.274-3.208-1.942-4.953-1.937
		c-0.954,0-1.848,0.135-2.668,0.439c-0.82,0.303-1.56,0.78-2.179,1.419l0.731,0.71l-0.613-0.814l-24.366,18.351l0.613,0.814
		l0.464-0.908c-4.748-2.426-9.947-4.573-15.6-6.411l-0.315,0.97l1.008-0.154l-4.816-31.6l-1.008,0.154l1.017-0.072
		c-0.113-1.758-0.963-3.287-2.33-4.392l-0.004-0.004l-0.005-0.004c-1.381-1.112-3.045-1.687-4.861-1.681h-38.085
		c-1.821-0.003-3.419,0.449-4.662,1.418c-1.245,0.967-2.069,2.401-2.508,4.15l0.002-0.008c-1.516,5.823-3.166,16.493-5.01,32.072
		l1.013,0.12l-0.308-0.972c-5.436,1.719-10.703,3.932-15.784,6.601l0.474,0.903l0.625-0.806L76.93,33.991h0
		c-1.619-1.26-3.346-1.917-5.089-1.915c-0.905,0.008-1.828,0.332-2.899,0.876c-1.601,0.824-3.532,2.198-5.865,4.137
		c-2.33,1.939-5.052,4.445-8.177,7.524l-0.003,0.003l0.002-0.002c-8.313,8.223-13.967,14.372-17.017,18.602l-0.007,0.01l-0.007,0.01
		c-1.078,1.583-1.707,3.058-1.713,4.524c-0.002,1.657,0.692,3.268,1.95,4.782l0-0.001c7.646,9.255,13.754,17.138,18.32,23.608
		l0.833-0.588l-0.895-0.489c-2.903,5.312-5.147,10.635-6.78,15.99l0.975,0.297l-0.151-1.008l-31.943,4.802l-0.01,0.002
		c-1.557,0.263-2.887,1.224-3.902,2.62l-0.003,0.005l0.003-0.004c-1.021,1.393-1.564,2.956-1.562,4.552v38.102
		c-0.004,1.696,0.532,3.308,1.577,4.662l0.809-0.621l-0.815,0.612c1.051,1.415,2.542,2.282,4.252,2.55l0.007,0.001l31.424,4.62
		l0.148-1.009l-0.981,0.278c1.618,5.702,4.002,11.421,7.118,17.19l0.897-0.484l-0.829-0.594c-2.046,2.859-5.125,6.863-9.236,12.053
		l-0.001,0.002c-4.123,5.231-7.042,9.035-8.778,11.463l0.004-0.007c-1.031,1.411-1.583,2.952-1.579,4.548
		c-0.004,1.678,0.475,3.214,1.379,4.528l0.007,0.011l0.008,0.011c4.566,6.296,14.033,15.93,28.459,28.99l0.684-0.756l-0.725,0.717
		c1.4,1.432,3.137,2.227,5.025,2.217c1.932,0.007,3.641-0.638,4.957-1.804l-0.674-0.766l0.617,0.812l24.2-18.382l-0.617-0.812
		l-0.465,0.907c4.746,2.431,9.945,4.575,15.598,6.414l0.315-0.97l-1.008,0.153l4.817,31.596l1.008-0.153l-1.017,0.072
		c0.061,0.877,0.295,1.703,0.694,2.443c0.398,0.741,0.956,1.392,1.635,1.949l0.004,0.004l0.004,0.003
		c1.381,1.116,3.046,1.69,4.86,1.685h38.085c1.822,0.003,3.421-0.449,4.664-1.419c1.246-0.968,2.07-2.402,2.508-4.152l-0.002,0.007
		c1.516-5.848,3.166-16.488,5.008-32.067l-1.013-0.12l0.312,0.971c5.431-1.749,10.694-3.929,15.775-6.568l-0.47-0.904l-0.628,0.803
		l23.727,18.566l0.046,0.028c1.706,1.06,3.361,1.7,5.005,1.704c0.905-0.008,1.826-0.332,2.894-0.876
		c1.595-0.823,3.516-2.193,5.835-4.124c2.316-1.93,5.02-4.42,8.121-7.476l0.001-0.002c8.251-8.163,13.938-14.343,17.106-18.688
		l-0.824-0.601l0.766,0.674c1.16-1.307,1.795-2.896,1.787-4.626c0.005-1.75-0.68-3.438-1.957-4.94l-0.779,0.657l0.789-0.646
		c-8.224-10.045-14.336-17.932-18.318-23.638l-0.836,0.584l0.896,0.486c2.327-4.285,4.58-9.528,6.766-15.766l-0.962-0.337
		l0.152,1.008l31.755-4.799h0.002c1.655-0.253,3.073-1.208,4.101-2.625l0.003-0.004l0.003-0.005c1.013-1.409,1.563-2.944,1.56-4.544
		v-38.1H277.629z"/>
	<circle fill="#FFFFFF" cx="145.815" cy="141.73" r="83.606"/>
	<path fill="#555555" d="M229.421,141.73h-1.02c0,22.809-9.242,43.45-24.189,58.398c-14.949,14.947-35.589,24.188-58.398,24.189
		c-22.809-0.001-43.449-9.242-58.397-24.189C72.47,185.18,63.229,164.539,63.228,141.73c0-22.809,9.242-43.449,24.189-58.398
		c14.949-14.947,35.588-24.189,58.397-24.189c22.809,0,43.45,9.243,58.398,24.189c14.947,14.949,24.188,35.589,24.189,58.398
		H229.421h1.02c0-46.738-37.888-84.626-84.626-84.626c-46.738,0-84.625,37.889-84.625,84.626c0,46.739,37.888,84.625,84.625,84.626
		c46.739-0.001,84.626-37.888,84.626-84.626H229.421z"/>
	<path fill="#005C27" d="M213.074,129.991c-2.78-2.26-18.501-0.576-32.453,5.354c-0.341,5.054-1.137,10.065-2.561,14.96
		c-2.082,7.151-5.927,14.083-12.614,17.829c-2.754,1.541-5.789,2.451-8.852,2.863c1.123,2.769,2.877,5.369,5.078,7.791
		c-0.179,0.194-0.324,0.35-0.406,0.427c-2.338,2.191-4.652,4.405-6.928,6.66c-0.432,0.426-0.86,0.855-1.287,1.286
		c0.556-5.289,0.433-10.574-0.165-15.902c-0.129-1.16-0.281-2.32-0.455-3.482c2.723,0.024,5.447-0.303,8.034-1.166
		c13.289-4.437,16.298-21.092,16.855-33.278c0.627-13.695-1.696-27.767-4.847-41.052c-1.348-5.681-2.892-11.409-5.208-16.783
		c-0.84-1.948-2.54-6.622-5.256-6.622c-2.925,0-6.131,2.242-8.499,3.7c-4.433,2.73-8.597,5.907-12.572,9.26
		c-9.434,7.955-18.397,17.261-24.385,28.136c-3.624,6.581-5.387,13.878-5.05,21.13c12.226,4.868,23.55,12.946,27.093,26.008
		c0.765,2.817,0.907,5.646,0.548,8.4c2.425,0.778,4.922,1.366,7.456,1.752c-3.732-15.172-4.844-30.896-2.729-46.404
		c-0.826,10.328-0.293,20.734,1.501,30.936c0.922,5.234,3.628,11.48,3.606,19.262c-0.003,1.087-0.097,2.169-0.186,3.256
		c-0.396,4.817-1.282,9.582-2.861,14.158c-0.624,1.813-1.356,3.572-2.161,5.292c-3.227-4.95-7.5-9.325-11.918-13.27
		c-0.986-0.878-1.976-1.736-2.965-2.572c4.447-4.851,7.583-10.953,6.536-17.734c-1.314-8.491-8.065-15.987-15.072-20.5
		c-11.099-7.143-26.261-11.319-39.484-11.319c-3.691,0-3.63,1.219-3.54,4.423c0.099,3.546,0.599,7.091,1.229,10.578
		c1.74,9.646,4.661,19.536,9.967,27.861c5.789,9.081,16.977,18.062,28.375,14.731c3.022-0.882,5.779-2.512,8.216-4.484
		c1.032-0.845,0.289-1.525-0.574-2.756c-0.475-0.68-0.958-1.358-1.439-2.034c-0.967-1.352-1.949-2.694-2.942-4.027
		c-4.475-5.991-9.229-11.779-14.283-17.293c7.716,7.528,22.178,25.054,22.841,25.901c0.35,0.449,0.691,0.901,1.034,1.355
		c1.514,2.001,2.955,4.051,4.351,6.138c2.387,3.761,4.837,7.726,5.866,12.114c-0.384,0.647-0.774,1.295-1.17,1.938
		c-1.894,3.138-5.052,6.793-1.406,10.154c6.828,6.295,11.454-7.348,13.404-14.438c8.631-13.904,26.463-34.479,34.173-41.998
		c-7.295,7.956-13.976,16.498-20.085,25.402c8.795,7.615,19.846,9.313,32.723-3.562
		C211.453,164.527,217.057,133.229,213.074,129.991z"/>
</g>
</svg>
